<svg width="33" height="32" viewBox="0 0 33 32" fill="none" xmlns="http://www.w3.org/2000/svg">
<g clip-path="url(#clip0_4839_21645)">
<path d="M1.5 22.6667C1.5 21.9594 1.78095 21.2811 2.28105 20.781C2.78115 20.281 3.45942 20 4.16667 20H6.83333C7.54058 20 8.21885 20.281 8.71895 20.781C9.21905 21.2811 9.5 21.9594 9.5 22.6667V25.3333C9.5 26.0406 9.21905 26.7189 8.71895 27.219C8.21885 27.719 7.54058 28 6.83333 28H4.16667C3.45942 28 2.78115 27.719 2.28105 27.219C1.78095 26.7189 1.5 26.0406 1.5 25.3333V22.6667Z" stroke="white" stroke-width="1.5" stroke-linecap="round" stroke-linejoin="round"/>
<path d="M17.5 22.6667C17.5 21.9594 17.781 21.2811 18.281 20.781C18.7811 20.281 19.4594 20 20.1667 20H22.8333C23.5406 20 24.2189 20.281 24.719 20.781C25.219 21.2811 25.5 21.9594 25.5 22.6667V25.3333C25.5 26.0406 25.219 26.7189 24.719 27.219C24.2189 27.719 23.5406 28 22.8333 28H20.1667C19.4594 28 18.7811 27.719 18.281 27.219C17.781 26.7189 17.5 26.0406 17.5 25.3333V22.6667Z" stroke="white" stroke-width="1.5" stroke-linecap="round" stroke-linejoin="round"/>
<path d="M9.5 6.66667C9.5 5.95942 9.78095 5.28115 10.281 4.78105C10.7811 4.28095 11.4594 4 12.1667 4H14.8333C15.5406 4 16.2189 4.28095 16.719 4.78105C17.219 5.28115 17.5 5.95942 17.5 6.66667V9.33333C17.5 10.0406 17.219 10.7189 16.719 11.219C16.2189 11.719 15.5406 12 14.8333 12H12.1667C11.4594 12 10.7811 11.719 10.281 11.219C9.78095 10.7189 9.5 10.0406 9.5 9.33333V6.66667Z" stroke="white" stroke-width="1.5" stroke-linecap="round" stroke-linejoin="round"/>
<path d="M5.5 20V18.6667C5.5 17.9594 5.78095 17.2811 6.28105 16.781C6.78115 16.281 7.45942 16 8.16667 16H18.8333C19.5406 16 20.2189 16.281 20.719 16.781C21.219 17.2811 21.5 17.9594 21.5 18.6667V20" stroke="white" stroke-width="1.5" stroke-linecap="round" stroke-linejoin="round"/>
<path d="M13.5 12V16" stroke="white" stroke-width="1.5" stroke-linecap="round" stroke-linejoin="round"/>
</g>
<defs>
<clipPath id="clip0_4839_21645">
<rect width="32" height="32" fill="white" transform="translate(0.5)"/>
</clipPath>
</defs>
</svg>
