<svg width="33" height="32" viewBox="0 0 33 32" fill="none" xmlns="http://www.w3.org/2000/svg">
<g clip-path="url(#clip0_4839_21676)">
<path d="M16.2143 23.4481C15.6879 22.9465 14.9887 22.6667 14.2617 22.6667C13.5346 22.6667 12.8354 22.9465 12.309 23.4481C12.0534 23.6911 11.8499 23.9835 11.7108 24.3076C11.5717 24.6317 11.5 24.9807 11.5 25.3334C11.5 25.6861 11.5717 26.0351 11.7108 26.3592C11.8499 26.6833 12.0534 26.9757 12.309 27.2187C13.3877 28.2601 15.1357 28.2601 16.2143 27.2187M16.2143 27.2187C15.141 28.2561 17.293 26.1774 16.2143 27.2187ZM16.2143 27.2187L18.161 25.3387L20.1077 23.4467" stroke="white" stroke-width="1.5" stroke-linecap="round" stroke-linejoin="round"/>
<path d="M16.2188 23.4427L18.1654 25.3361L20.1121 27.2161M20.1121 27.2161C19.0387 26.1774 21.1907 28.2561 20.1121 27.2161ZM20.1121 27.2161C21.1854 28.2547 22.9387 28.2574 24.0174 27.2161C24.273 26.9731 24.4766 26.6806 24.6156 26.3565C24.7547 26.0324 24.8264 25.6834 24.8264 25.3307C24.8264 24.978 24.7547 24.629 24.6156 24.3049C24.4766 23.9808 24.273 23.6884 24.0174 23.4454C23.491 22.9438 22.7918 22.6641 22.0647 22.6641C21.3377 22.6641 20.6385 22.9438 20.1121 23.4454" stroke="white" stroke-width="1.5" stroke-linecap="round" stroke-linejoin="round"/>
<path d="M14.168 4V9.33333C14.168 9.68696 14.3084 10.0261 14.5585 10.2761C14.8085 10.5262 15.1477 10.6667 15.5013 10.6667H20.8346" stroke="white" stroke-width="1.5" stroke-linecap="round" stroke-linejoin="round"/>
<path d="M8.16797 28H4.83464C4.12739 28 3.44911 27.719 2.94902 27.219C2.44892 26.7189 2.16797 26.0406 2.16797 25.3333V6.66667C2.16797 5.95942 2.44892 5.28115 2.94902 4.78105C3.44911 4.28095 4.12739 4 4.83464 4H14.168L20.8346 10.6667V18.6667" stroke="white" stroke-width="1.5" stroke-linecap="round" stroke-linejoin="round"/>
</g>
<defs>
<clipPath id="clip0_4839_21676">
<rect width="32" height="32" fill="white" transform="translate(0.5)"/>
</clipPath>
</defs>
</svg>
