<svg width="32" height="32" viewBox="0 0 32 32" fill="none" xmlns="http://www.w3.org/2000/svg">
<g clip-path="url(#clip0_4839_21617)">
<path d="M14.332 11.6668C14.332 11.3132 14.4725 10.9741 14.7226 10.724C14.9726 10.474 15.3117 10.3335 15.6654 10.3335H23.6654C24.019 10.3335 24.3581 10.474 24.6082 10.724C24.8582 10.9741 24.9987 11.3132 24.9987 11.6668V25.0002C24.9987 25.3538 24.8582 25.6929 24.6082 25.943C24.3581 26.193 24.019 26.3335 23.6654 26.3335H15.6654C15.3117 26.3335 14.9726 26.193 14.7226 25.943C14.4725 25.6929 14.332 25.3538 14.332 25.0002V11.6668Z" stroke="white" stroke-width="1.5" stroke-linecap="round" stroke-linejoin="round"/>
<path d="M21 10.3333V6.33333C21 5.97971 20.8595 5.64057 20.6095 5.39052C20.3594 5.14048 20.0203 5 19.6667 5H2.33333C1.97971 5 1.64057 5.14048 1.39052 5.39052C1.14048 5.64057 1 5.97971 1 6.33333V22.3333C1 22.687 1.14048 23.0261 1.39052 23.2761C1.64057 23.5262 1.97971 23.6667 2.33333 23.6667H14.3333" stroke="white" stroke-width="1.5" stroke-linecap="round" stroke-linejoin="round"/>
<path d="M18.332 11.6667H20.9987" stroke="white" stroke-width="1.5" stroke-linecap="round" stroke-linejoin="round"/>
</g>
<defs>
<clipPath id="clip0_4839_21617">
<rect width="32" height="32" fill="white"/>
</clipPath>
</defs>
</svg>
