<svg width="33" height="32" viewBox="0 0 33 32" fill="none" xmlns="http://www.w3.org/2000/svg">
<g clip-path="url(#clip0_4839_21745)">
<path d="M1.5 16C1.5 17.0609 1.92143 18.0783 2.67157 18.8284C3.42172 19.5786 4.43913 20 5.5 20C6.56087 20 7.57828 19.5786 8.32843 18.8284C9.07857 18.0783 9.5 17.0609 9.5 16C9.5 14.9391 9.07857 13.9217 8.32843 13.1716C7.57828 12.4214 6.56087 12 5.5 12C4.43913 12 3.42172 12.4214 2.67157 13.1716C1.92143 13.9217 1.5 14.9391 1.5 16Z" stroke="white" stroke-width="1.5" stroke-linecap="round" stroke-linejoin="round"/>
<path d="M17.5 8C17.5 9.06087 17.9214 10.0783 18.6716 10.8284C19.4217 11.5786 20.4391 12 21.5 12C22.5609 12 23.5783 11.5786 24.3284 10.8284C25.0786 10.0783 25.5 9.06087 25.5 8C25.5 6.93913 25.0786 5.92172 24.3284 5.17157C23.5783 4.42143 22.5609 4 21.5 4C20.4391 4 19.4217 4.42143 18.6716 5.17157C17.9214 5.92172 17.5 6.93913 17.5 8Z" stroke="white" stroke-width="1.5" stroke-linecap="round" stroke-linejoin="round"/>
<path d="M17.5 24C17.5 25.0609 17.9214 26.0783 18.6716 26.8284C19.4217 27.5786 20.4391 28 21.5 28C22.5609 28 23.5783 27.5786 24.3284 26.8284C25.0786 26.0783 25.5 25.0609 25.5 24C25.5 22.9391 25.0786 21.9217 24.3284 21.1716C23.5783 20.4214 22.5609 20 21.5 20C20.4391 20 19.4217 20.4214 18.6716 21.1716C17.9214 21.9217 17.5 22.9391 17.5 24Z" stroke="white" stroke-width="1.5" stroke-linecap="round" stroke-linejoin="round"/>
<path d="M9.09766 14.2667L17.8977 9.7334" stroke="white" stroke-width="1.5" stroke-linecap="round" stroke-linejoin="round"/>
<path d="M9.09766 17.7334L17.8977 22.2667" stroke="white" stroke-width="1.5" stroke-linecap="round" stroke-linejoin="round"/>
</g>
<defs>
<clipPath id="clip0_4839_21745">
<rect width="32" height="32" fill="white" transform="translate(0.5)"/>
</clipPath>
</defs>
</svg>
